<svg xmlns="http://www.w3.org/2000/svg" width="640" height="160" viewBox="0 0 640 160" role="img" aria-labelledby="t d"><title id="t">Tallinna Haridusamet</title><desc id="d">Tallinna Haridusameti sinine tunnus</desc><rect width="640" height="160" rx="12" fill="white"/><path d="M30 24h105v72c0 27-22 43-52.5 55C52 139 30 123 30 96V24Z" fill="#005ca9"/><path d="M44 62c17-14 34-14 51 0 12 10 24 10 35 1v18c-11 9-23 9-35-1-17-14-34-14-51 0V62Zm0 31c17-14 34-14 51 0 12 10 24 10 35 1v18c-11 9-23 9-35-1-17-14-34-14-51 0V93Z" fill="white"/><text x="165" y="72" font-family="Arial,sans-serif" font-size="44" font-weight="700" fill="#005ca9">TALLINN</text><text x="165" y="121" font-family="Arial,sans-serif" font-size="38" fill="#17365d">HARIDUSAMET</text></svg>